<mxfile host="Electron" agent="Mozilla/5.0 (Windows NT 10.0; Win64; x64) AppleWebKit/537.36 (KHTML, like Gecko) draw.io/26.0.9 Chrome/128.0.6613.186 Electron/32.2.5 Safari/537.36" version="26.0.9">
  <diagram name="Страница — 1" id="IEhoOxj-hiJCex0_yVB8">
    <mxGraphModel dx="1063" dy="709" grid="1" gridSize="10" guides="1" tooltips="1" connect="1" arrows="1" fold="1" page="1" pageScale="1" pageWidth="827" pageHeight="1169" math="0" shadow="0">
      <root>
        <mxCell id="0" />
        <mxCell id="1" parent="0" />
        <mxCell id="Ov4vm0zm-csYnfMT60Ja-1" value="&lt;font style=&quot;font-size: 16px;&quot;&gt;&lt;b&gt;Логика запроса книги&lt;/b&gt;&lt;/font&gt;" style="shape=note;whiteSpace=wrap;html=1;backgroundOutline=1;darkOpacity=0.05;" parent="1" vertex="1">
          <mxGeometry x="374" y="30" width="146" height="100" as="geometry" />
        </mxCell>
        <mxCell id="Ov4vm0zm-csYnfMT60Ja-2" value="" style="endArrow=classic;html=1;rounded=0;entryX=1;entryY=0.5;entryDx=0;entryDy=0;exitX=0.5;exitY=1;exitDx=0;exitDy=0;" parent="1" source="-mg8euGJsKriO782uZrJ-1" target="Ov4vm0zm-csYnfMT60Ja-25" edge="1">
          <mxGeometry width="50" height="50" relative="1" as="geometry">
            <mxPoint x="620" y="720" as="sourcePoint" />
            <mxPoint x="710" y="610" as="targetPoint" />
            <Array as="points">
              <mxPoint x="620" y="760" />
            </Array>
          </mxGeometry>
        </mxCell>
        <mxCell id="Ov4vm0zm-csYnfMT60Ja-3" value="" style="ellipse;html=1;shape=startState;fillColor=#000000;strokeColor=#ff0000;" parent="1" vertex="1">
          <mxGeometry x="384" y="170" width="30" height="30" as="geometry" />
        </mxCell>
        <mxCell id="Ov4vm0zm-csYnfMT60Ja-10" value="&lt;font style=&quot;font-size: 14px;&quot;&gt;Поиск книги&lt;/font&gt;" style="strokeWidth=2;html=1;shape=mxgraph.flowchart.terminator;whiteSpace=wrap;" parent="1" vertex="1">
          <mxGeometry x="349" y="250" width="100" height="40" as="geometry" />
        </mxCell>
        <mxCell id="Ov4vm0zm-csYnfMT60Ja-11" value="&lt;font style=&quot;font-size: 14px;&quot;&gt;Есть?&lt;/font&gt;" style="rhombus;whiteSpace=wrap;html=1;fontColor=#000000;fillColor=#ffffc0;strokeColor=#ff0000;" parent="1" vertex="1">
          <mxGeometry x="340" y="334" width="120" height="50" as="geometry" />
        </mxCell>
        <mxCell id="Ov4vm0zm-csYnfMT60Ja-14" value="" style="endArrow=classic;html=1;rounded=0;exitX=0.5;exitY=1;exitDx=0;exitDy=0;entryX=0.5;entryY=0;entryDx=0;entryDy=0;entryPerimeter=0;" parent="1" source="Ov4vm0zm-csYnfMT60Ja-3" target="Ov4vm0zm-csYnfMT60Ja-10" edge="1">
          <mxGeometry width="50" height="50" relative="1" as="geometry">
            <mxPoint x="410" y="220" as="sourcePoint" />
            <mxPoint x="460" y="170" as="targetPoint" />
          </mxGeometry>
        </mxCell>
        <mxCell id="Ov4vm0zm-csYnfMT60Ja-15" value="" style="endArrow=classic;html=1;rounded=0;exitX=0.5;exitY=1;exitDx=0;exitDy=0;exitPerimeter=0;entryX=0.5;entryY=0;entryDx=0;entryDy=0;" parent="1" source="Ov4vm0zm-csYnfMT60Ja-10" target="Ov4vm0zm-csYnfMT60Ja-11" edge="1">
          <mxGeometry width="50" height="50" relative="1" as="geometry">
            <mxPoint x="450" y="300" as="sourcePoint" />
            <mxPoint x="500" y="250" as="targetPoint" />
          </mxGeometry>
        </mxCell>
        <mxCell id="Ov4vm0zm-csYnfMT60Ja-16" value="" style="endArrow=classic;html=1;rounded=0;exitX=0.5;exitY=1;exitDx=0;exitDy=0;" parent="1" source="Ov4vm0zm-csYnfMT60Ja-11" edge="1">
          <mxGeometry width="50" height="50" relative="1" as="geometry">
            <mxPoint x="420" y="430" as="sourcePoint" />
            <mxPoint x="400" y="440" as="targetPoint" />
          </mxGeometry>
        </mxCell>
        <mxCell id="Ov4vm0zm-csYnfMT60Ja-17" value="&lt;font style=&quot;font-size: 14px;&quot;&gt;Доступна?&lt;/font&gt;" style="rhombus;whiteSpace=wrap;html=1;fontColor=#000000;fillColor=#ffffc0;strokeColor=#ff0000;" parent="1" vertex="1">
          <mxGeometry x="340" y="440" width="120" height="50" as="geometry" />
        </mxCell>
        <mxCell id="Ov4vm0zm-csYnfMT60Ja-19" value="" style="endArrow=classic;html=1;rounded=0;exitX=0.5;exitY=1;exitDx=0;exitDy=0;" parent="1" source="Ov4vm0zm-csYnfMT60Ja-17" edge="1">
          <mxGeometry width="50" height="50" relative="1" as="geometry">
            <mxPoint x="410" y="520" as="sourcePoint" />
            <mxPoint x="400" y="550" as="targetPoint" />
          </mxGeometry>
        </mxCell>
        <mxCell id="Ov4vm0zm-csYnfMT60Ja-20" value="&lt;font style=&quot;font-size: 14px;&quot;&gt;Сформировать&lt;/font&gt;&lt;div&gt;&lt;font style=&quot;font-size: 14px;&quot;&gt;запись в&lt;/font&gt;&lt;/div&gt;&lt;div&gt;&lt;font style=&quot;font-size: 14px;&quot;&gt;журнале&lt;/font&gt;&lt;/div&gt;" style="strokeWidth=2;html=1;shape=mxgraph.flowchart.terminator;whiteSpace=wrap;" parent="1" vertex="1">
          <mxGeometry x="340" y="550" width="120" height="60" as="geometry" />
        </mxCell>
        <mxCell id="Ov4vm0zm-csYnfMT60Ja-23" value="&lt;font style=&quot;font-size: 14px;&quot;&gt;Получить книгу&lt;/font&gt;" style="strokeWidth=2;html=1;shape=mxgraph.flowchart.terminator;whiteSpace=wrap;" parent="1" vertex="1">
          <mxGeometry x="350" y="660" width="100" height="40" as="geometry" />
        </mxCell>
        <mxCell id="Ov4vm0zm-csYnfMT60Ja-24" value="" style="endArrow=classic;html=1;rounded=0;exitX=0.5;exitY=1;exitDx=0;exitDy=0;exitPerimeter=0;entryX=0.5;entryY=0;entryDx=0;entryDy=0;entryPerimeter=0;" parent="1" source="Ov4vm0zm-csYnfMT60Ja-20" target="Ov4vm0zm-csYnfMT60Ja-23" edge="1">
          <mxGeometry width="50" height="50" relative="1" as="geometry">
            <mxPoint x="440" y="630" as="sourcePoint" />
            <mxPoint x="490" y="580" as="targetPoint" />
          </mxGeometry>
        </mxCell>
        <mxCell id="Ov4vm0zm-csYnfMT60Ja-25" value="" style="ellipse;html=1;shape=endState;fillColor=#000000;strokeColor=#ff0000;" parent="1" vertex="1">
          <mxGeometry x="385" y="740" width="30" height="30" as="geometry" />
        </mxCell>
        <mxCell id="Ov4vm0zm-csYnfMT60Ja-26" value="" style="endArrow=classic;html=1;rounded=0;exitX=0.5;exitY=1;exitDx=0;exitDy=0;exitPerimeter=0;entryX=0.5;entryY=0;entryDx=0;entryDy=0;" parent="1" source="Ov4vm0zm-csYnfMT60Ja-23" target="Ov4vm0zm-csYnfMT60Ja-25" edge="1">
          <mxGeometry width="50" height="50" relative="1" as="geometry">
            <mxPoint x="420" y="720" as="sourcePoint" />
            <mxPoint x="470" y="670" as="targetPoint" />
          </mxGeometry>
        </mxCell>
        <mxCell id="Ov4vm0zm-csYnfMT60Ja-27" value="&lt;font style=&quot;font-size: 14px;&quot;&gt;да&lt;/font&gt;" style="text;html=1;align=center;verticalAlign=middle;resizable=0;points=[];autosize=1;strokeColor=none;fillColor=none;" parent="1" vertex="1">
          <mxGeometry x="400" y="388" width="40" height="30" as="geometry" />
        </mxCell>
        <mxCell id="Ov4vm0zm-csYnfMT60Ja-28" value="" style="endArrow=classic;html=1;rounded=0;exitX=0;exitY=0.5;exitDx=0;exitDy=0;entryX=0;entryY=0.5;entryDx=0;entryDy=0;" parent="1" source="Ov4vm0zm-csYnfMT60Ja-11" target="Ov4vm0zm-csYnfMT60Ja-25" edge="1">
          <mxGeometry width="50" height="50" relative="1" as="geometry">
            <mxPoint x="250" y="370" as="sourcePoint" />
            <mxPoint x="300" y="320" as="targetPoint" />
            <Array as="points">
              <mxPoint x="280" y="359" />
              <mxPoint x="280" y="750" />
            </Array>
          </mxGeometry>
        </mxCell>
        <mxCell id="Ov4vm0zm-csYnfMT60Ja-29" value="&lt;font style=&quot;font-size: 14px;&quot;&gt;нет&lt;/font&gt;" style="text;html=1;align=center;verticalAlign=middle;resizable=0;points=[];autosize=1;strokeColor=none;fillColor=none;" parent="1" vertex="1">
          <mxGeometry x="298" y="328" width="40" height="30" as="geometry" />
        </mxCell>
        <mxCell id="Ov4vm0zm-csYnfMT60Ja-30" value="&lt;font style=&quot;font-size: 14px;&quot;&gt;да&lt;/font&gt;" style="text;html=1;align=center;verticalAlign=middle;resizable=0;points=[];autosize=1;strokeColor=none;fillColor=none;" parent="1" vertex="1">
          <mxGeometry x="400" y="500" width="40" height="30" as="geometry" />
        </mxCell>
        <mxCell id="Ov4vm0zm-csYnfMT60Ja-31" value="&lt;span style=&quot;font-size: 14px;&quot;&gt;Забронировать&lt;/span&gt;&lt;div&gt;&lt;span style=&quot;font-size: 14px;&quot;&gt;книгу&lt;/span&gt;&lt;/div&gt;" style="strokeWidth=2;html=1;shape=mxgraph.flowchart.terminator;whiteSpace=wrap;" parent="1" vertex="1">
          <mxGeometry x="560" y="435" width="120" height="60" as="geometry" />
        </mxCell>
        <mxCell id="Ov4vm0zm-csYnfMT60Ja-33" value="" style="endArrow=classic;html=1;rounded=0;exitX=1;exitY=0.5;exitDx=0;exitDy=0;entryX=0;entryY=0.5;entryDx=0;entryDy=0;entryPerimeter=0;" parent="1" source="Ov4vm0zm-csYnfMT60Ja-17" target="Ov4vm0zm-csYnfMT60Ja-31" edge="1">
          <mxGeometry width="50" height="50" relative="1" as="geometry">
            <mxPoint x="500" y="460" as="sourcePoint" />
            <mxPoint x="550" y="410" as="targetPoint" />
          </mxGeometry>
        </mxCell>
        <mxCell id="Ov4vm0zm-csYnfMT60Ja-34" value="&lt;font style=&quot;font-size: 14px;&quot;&gt;нет&lt;/font&gt;" style="text;html=1;align=center;verticalAlign=middle;resizable=0;points=[];autosize=1;strokeColor=none;fillColor=none;" parent="1" vertex="1">
          <mxGeometry x="480" y="430" width="40" height="30" as="geometry" />
        </mxCell>
        <mxCell id="-mg8euGJsKriO782uZrJ-1" value="&lt;font style=&quot;font-size: 14px;&quot;&gt;Взять книгу?&lt;/font&gt;" style="rhombus;whiteSpace=wrap;html=1;fontColor=#000000;fillColor=#ffffc0;strokeColor=#ff0000;" vertex="1" parent="1">
          <mxGeometry x="560" y="555" width="120" height="50" as="geometry" />
        </mxCell>
        <mxCell id="-mg8euGJsKriO782uZrJ-3" value="" style="endArrow=classic;html=1;rounded=0;exitX=0.5;exitY=1;exitDx=0;exitDy=0;exitPerimeter=0;entryX=0.5;entryY=0;entryDx=0;entryDy=0;" edge="1" parent="1" source="Ov4vm0zm-csYnfMT60Ja-31" target="-mg8euGJsKriO782uZrJ-1">
          <mxGeometry width="50" height="50" relative="1" as="geometry">
            <mxPoint x="630" y="510" as="sourcePoint" />
            <mxPoint x="680" y="460" as="targetPoint" />
          </mxGeometry>
        </mxCell>
        <mxCell id="-mg8euGJsKriO782uZrJ-4" value="" style="endArrow=classic;html=1;rounded=0;exitX=0;exitY=0.5;exitDx=0;exitDy=0;entryX=1;entryY=0.5;entryDx=0;entryDy=0;entryPerimeter=0;" edge="1" parent="1" source="-mg8euGJsKriO782uZrJ-1" target="Ov4vm0zm-csYnfMT60Ja-20">
          <mxGeometry width="50" height="50" relative="1" as="geometry">
            <mxPoint x="510" y="580" as="sourcePoint" />
            <mxPoint x="560" y="530" as="targetPoint" />
          </mxGeometry>
        </mxCell>
        <mxCell id="-mg8euGJsKriO782uZrJ-5" value="&lt;font style=&quot;font-size: 14px;&quot;&gt;да&lt;/font&gt;" style="text;html=1;align=center;verticalAlign=middle;resizable=0;points=[];autosize=1;strokeColor=none;fillColor=none;" vertex="1" parent="1">
          <mxGeometry x="496" y="552" width="40" height="30" as="geometry" />
        </mxCell>
        <mxCell id="-mg8euGJsKriO782uZrJ-6" value="&lt;font style=&quot;font-size: 14px;&quot;&gt;нет&lt;/font&gt;" style="text;html=1;align=center;verticalAlign=middle;resizable=0;points=[];autosize=1;strokeColor=none;fillColor=none;" vertex="1" parent="1">
          <mxGeometry x="619" y="670" width="40" height="30" as="geometry" />
        </mxCell>
      </root>
    </mxGraphModel>
  </diagram>
</mxfile>
